<svg width="130" height="39" viewBox="0 0 130 39" fill="none" xmlns="http://www.w3.org/2000/svg">
<mask id="mask0_2_412" style="mask-type:alpha" maskUnits="userSpaceOnUse" x="5" y="25" width="8" height="6">
<path d="M6.46968 27.2198C7.73271 26.0192 11.0449 25.8721 12.6237 25.9045C11.6231 27.3859 9.51268 30.0142 8.02377 30.2877C6.04583 30.651 4.8909 28.7207 6.46968 27.2198Z" fill="#849A72"/>
</mask>
<g mask="url(#mask0_2_412)">
<path d="M6.46968 27.2198C7.73271 26.0192 11.0449 25.8721 12.6237 25.9045C11.6231 27.3859 9.51268 30.0142 8.02377 30.2877C6.04583 30.651 4.8909 28.7207 6.46968 27.2198Z" fill="#849A72"/>
<path d="M12.6219 25.9065C11.2345 26.8332 7.97454 28.8698 6.03326 29.6026" stroke="#145855" stroke-width="0.8" stroke-linecap="round" stroke-linejoin="round"/>
<path d="M6.2207 27.5269L8.47812 28.3967V30.0949" stroke="#145855" stroke-width="0.8" stroke-linecap="round" stroke-linejoin="round"/>
<path d="M7.65251 26.5869L10.0255 27.5204L10.1514 28.8337" stroke="#145855" stroke-width="0.8" stroke-linecap="round" stroke-linejoin="round"/>
<path d="M9.75343 26.0801L11.3616 26.7074V27.5269" stroke="#145855" stroke-width="0.8" stroke-linecap="round" stroke-linejoin="round"/>
</g>
<mask id="mask1_2_412" style="mask-type:alpha" maskUnits="userSpaceOnUse" x="0" y="19" width="11" height="5">
<path d="M2.01706 19.384C4.44859 18.7141 8.50502 20.2542 10.2293 21.108C8.11216 22.2495 5.52803 24.253 2.42021 23.819C-0.413433 23.4233 -1.02236 20.2214 2.01706 19.384Z" fill="#849A72"/>
</mask>
<g mask="url(#mask1_2_412)">
<path d="M2.01706 19.384C4.44859 18.7141 8.50502 20.2542 10.2293 21.108C8.11216 22.2495 5.52803 24.253 2.42021 23.819C-0.413433 23.4233 -1.02236 20.2214 2.01706 19.384Z" fill="#849A72"/>
<path d="M10.1441 21.1257C7.27047 21.2236 2.19703 21.3082 0.0493774 21.6127" stroke="#145855" stroke-width="0.8" stroke-linecap="round" stroke-linejoin="round"/>
<path d="M4.53198 19.323L6.02749 21.2526L5.529 23.5038" stroke="#145855" stroke-width="0.8" stroke-linecap="round" stroke-linejoin="round"/>
<path d="M1.89996 19.459L3.34782 21.3346L2.36065 23.7366" stroke="#145855" stroke-width="0.8" stroke-linecap="round" stroke-linejoin="round"/>
<path d="M7.17816 19.9543L8.22073 21.176L7.9112 22.4302" stroke="#145855" stroke-width="0.8" stroke-linecap="round" stroke-linejoin="round"/>
</g>
<mask id="mask2_2_412" style="mask-type:alpha" maskUnits="userSpaceOnUse" x="0" y="10" width="10" height="8">
<path d="M3.91622 11.3276C6.21572 12.7511 8.37827 15.9721 9.17211 17.4047C7.00039 17.2952 2.32297 16.5999 0.987095 14.6947C-0.682751 12.3131 1.04184 9.54825 3.91622 11.3276Z" fill="#849A72"/>
</mask>
<g mask="url(#mask2_2_412)">
<path d="M3.91622 11.3276C6.21572 12.7511 8.37827 15.9721 9.17211 17.4047C7.00039 17.2952 2.32297 16.5999 0.987095 14.6947C-0.682751 12.3131 1.04184 9.54825 3.91622 11.3276Z" fill="#849A72"/>
<path d="M9.23942 17.4363C6.89104 16.0253 1.84354 12.8283 0.440613 11.3286" stroke="#145855" stroke-width="0.8" stroke-linecap="round" stroke-linejoin="round"/>
<path d="M5.41656 16.9826L7.1963 16.1612V14.3813" stroke="#145855" stroke-width="0.8" stroke-linecap="round" stroke-linejoin="round"/>
<path d="M2.92499 16.1621L5.42124 15.01V12.1023" stroke="#145855" stroke-width="0.8" stroke-linecap="round" stroke-linejoin="round"/>
<path d="M0.490906 14.3271L3.1666 13.4924V10.5466" stroke="#145855" stroke-width="0.8" stroke-linecap="round" stroke-linejoin="round"/>
</g>
<mask id="mask3_2_412" style="mask-type:alpha" maskUnits="userSpaceOnUse" x="5" y="0" width="7" height="13">
<path d="M6.02413 2.32649C5.01773 5.45495 7.31853 10.3208 8.59472 12.3627C9.6248 10.7037 11.6029 6.63086 11.2748 3.61178C10.8646 -0.162057 7.28213 -1.58408 6.02413 2.32649Z" fill="#849A72"/>
</mask>
<g mask="url(#mask3_2_412)">
<path d="M6.02413 2.32649C5.01773 5.45495 7.31853 10.3208 8.59472 12.3627C9.6248 10.7037 11.6029 6.63086 11.2748 3.61178C10.8646 -0.162057 7.28213 -1.58408 6.02413 2.32649Z" fill="#849A72"/>
<path d="M8.50859 -0.291504C8.01018 2.81888 8.3724 11.2178 8.6733 12.6772" stroke="#145855" stroke-width="0.8" stroke-linecap="round" stroke-linejoin="round"/>
<path d="M6.55707 8.87207L8.41635 9.751L10.5461 8.87207" stroke="#145855" stroke-width="0.8" stroke-linecap="round" stroke-linejoin="round"/>
<path d="M5.85394 5.99745L8.31339 7.06779L11.3423 5.54199" stroke="#145855" stroke-width="0.8" stroke-linecap="round" stroke-linejoin="round"/>
<path d="M5.51288 2.94415L8.24838 4.32731L11.1684 2.42163" stroke="#145855" stroke-width="0.8" stroke-linecap="round" stroke-linejoin="round"/>
</g>
<mask id="mask4_2_412" style="mask-type:alpha" maskUnits="userSpaceOnUse" x="8" y="7" width="10" height="8">
<path d="M13.172 8.38319C10.8526 9.69201 9.2925 13.3051 8.80237 14.948C10.4453 14.7133 14.2033 13.7303 16.092 11.6759C18.4528 9.10801 16.0713 6.74717 13.172 8.38319Z" fill="#849A72"/>
</mask>
<g mask="url(#mask4_2_412)">
<path d="M13.172 8.38319C10.8526 9.69201 9.2925 13.3051 8.80237 14.948C10.4453 14.7133 14.2033 13.7303 16.092 11.6759C18.4528 9.10801 16.0713 6.74717 13.172 8.38319Z" fill="#849A72"/>
<path d="M8.70435 14.9573C10.7008 13.4022 15.1329 9.92679 16.746 8.21729" stroke="#145855" stroke-width="0.8" stroke-linecap="round" stroke-linejoin="round"/>
<path d="M9.9978 11.6011L10.3707 13.6045L12.3158 14.1965" stroke="#145855" stroke-width="0.8" stroke-linecap="round" stroke-linejoin="round"/>
<path d="M11.4922 9.61865L12.201 12.1192L15.0757 12.7493" stroke="#145855" stroke-width="0.8" stroke-linecap="round" stroke-linejoin="round"/>
<path d="M13.5201 7.92529L14.3471 10.3668L16.9058 10.7587" stroke="#145855" stroke-width="0.8" stroke-linecap="round" stroke-linejoin="round"/>
</g>
<mask id="mask5_2_412" style="mask-type:alpha" maskUnits="userSpaceOnUse" x="9" y="14" width="11" height="6">
<path d="M15.5822 14.7862C12.985 15.7752 10.6522 18.4316 9.81042 19.6362C11.5485 19.9849 15.674 20.3082 18.2713 18.812C21.5179 16.9418 18.8288 13.5499 15.5822 14.7862Z" fill="#849A72"/>
</mask>
<g mask="url(#mask5_2_412)">
<path d="M15.5822 14.7862C12.985 15.7752 10.6522 18.4316 9.81042 19.6362C11.5485 19.9849 15.674 20.3082 18.2713 18.812C21.5179 16.9418 18.8288 13.5499 15.5822 14.7862Z" fill="#849A72"/>
<path d="M9.63281 19.6747C12.2314 18.7831 17.8786 16.6869 19.6792 15.4343" stroke="#145855" stroke-width="0.8" stroke-linecap="round" stroke-linejoin="round"/>
<path d="M12.0184 16.811L11.8336 18.8824L13.8946 20.0547" stroke="#145855" stroke-width="0.8" stroke-linecap="round" stroke-linejoin="round"/>
<path d="M14.5962 15.0044L14.4034 17.9195L17.0776 19.5336" stroke="#145855" stroke-width="0.8" stroke-linecap="round" stroke-linejoin="round"/>
</g>
<mask id="mask6_2_412" style="mask-type:alpha" maskUnits="userSpaceOnUse" x="11" y="21" width="6" height="4">
<path d="M15.0507 21.7365C13.735 22.0164 12.2863 23.5094 11.7264 24.2209C12.3796 24.4192 14.3324 24.5045 15.5755 23.9059C17.4651 22.9962 16.6952 21.3865 15.0507 21.7365Z" fill="#849A72"/>
</mask>
<g mask="url(#mask6_2_412)">
<path d="M15.0507 21.7365C13.735 22.0164 12.2863 23.5094 11.7264 24.2209C12.3796 24.4192 14.3324 24.5045 15.5755 23.9059C17.4651 22.9962 16.6952 21.3865 15.0507 21.7365Z" fill="#849A72"/>
<path d="M11.6062 24.2749C12.6525 23.9895 15.141 23.1656 16.7247 22.1526" stroke="#145855" stroke-width="0.8" stroke-linecap="round" stroke-linejoin="round"/>
<path d="M13.362 22.5L13.2766 23.7441L14.4231 24.3662" stroke="#145855" stroke-width="0.8" stroke-linecap="round" stroke-linejoin="round"/>
<path d="M14.7159 21.7314V23.1341L15.9478 23.8294" stroke="#145855" stroke-width="0.8" stroke-linecap="round" stroke-linejoin="round"/>
</g>
<path d="M18.4174 32.3102C13.4619 28.1164 8.83801 21.8764 8.59424 12.1548" stroke="#849A72" stroke-width="1.5" stroke-linecap="round" stroke-linejoin="round"/>
<mask id="mask7_2_412" style="mask-type:alpha" maskUnits="userSpaceOnUse" x="14" y="33" width="7" height="6">
<path d="M15.3205 35.5659C16.9434 34.1748 19.0774 33.6177 20.018 33.5439C19.7335 34.4082 19.0593 35.8707 17.4987 37.4613C15.548 39.4496 12.9572 37.5917 15.3205 35.5659Z" fill="#849A72"/>
</mask>
<g mask="url(#mask7_2_412)">
<path d="M15.3205 35.5659C16.9434 34.1748 19.0774 33.6177 20.018 33.5439C19.7335 34.4082 19.0593 35.8707 17.4987 37.4613C15.548 39.4496 12.9572 37.5917 15.3205 35.5659Z" fill="#849A72"/>
<path d="M19.9269 33.6519C18.5283 34.9227 15.4372 37.6262 14.2614 38.2737" stroke="#145855" stroke-width="0.8" stroke-linecap="round" stroke-linejoin="round"/>
<path d="M14.3417 36.3091L16.3752 36.7227V38.4804" stroke="#145855" stroke-width="0.8" stroke-linecap="round" stroke-linejoin="round"/>
<path d="M15.784 34.8589L17.5973 35.6186V37.5675" stroke="#145855" stroke-width="0.8" stroke-linecap="round" stroke-linejoin="round"/>
</g>
<mask id="mask8_2_412" style="mask-type:alpha" maskUnits="userSpaceOnUse" x="16" y="26" width="4" height="5">
<path d="M17.3973 27.2201C16.8423 28.5346 16.8009 30.1776 16.8496 30.8348C17.6771 30.4819 19.6833 29.0153 19.771 27.5548C19.8805 25.7292 18.0909 25.5771 17.3973 27.2201Z" fill="#849A72"/>
</mask>
<g mask="url(#mask8_2_412)">
<path d="M17.3973 27.2201C16.8423 28.5346 16.8009 30.1776 16.8496 30.8348C17.6771 30.4819 19.6833 29.0153 19.771 27.5548C19.8805 25.7292 18.0909 25.5771 17.3973 27.2201Z" fill="#849A72"/>
<path d="M16.7619 30.8681C17.3554 29.8213 18.7023 27.3884 19.3416 26.0312" stroke="#145855" stroke-width="0.8" stroke-linecap="round" stroke-linejoin="round"/>
<path d="M16.9714 28.2129L17.5395 29.4323L19.0499 29.3214" stroke="#145855" stroke-width="0.8" stroke-linecap="round" stroke-linejoin="round"/>
</g>
<path d="M47.3139 27.168C46.1939 27.168 45.1859 26.976 44.2899 26.592C43.3939 26.192 42.6899 25.632 42.1779 24.912C41.6659 24.192 41.4099 23.352 41.4099 22.392H44.3379C44.4019 23.112 44.6819 23.704 45.1779 24.168C45.6899 24.632 46.4019 24.864 47.3139 24.864C48.2579 24.864 48.9939 24.64 49.5219 24.192C50.0499 23.728 50.3139 23.136 50.3139 22.416C50.3139 21.856 50.1459 21.4 49.8099 21.048C49.4899 20.696 49.0819 20.424 48.5859 20.232C48.1059 20.04 47.4339 19.832 46.5699 19.608C45.4819 19.32 44.5939 19.032 43.9059 18.744C43.2339 18.44 42.6579 17.976 42.1779 17.352C41.6979 16.728 41.4579 15.896 41.4579 14.856C41.4579 13.896 41.6979 13.056 42.1779 12.336C42.6579 11.616 43.3299 11.064 44.1939 10.68C45.0579 10.296 46.0579 10.104 47.1939 10.104C48.8099 10.104 50.1299 10.512 51.1539 11.328C52.1939 12.128 52.7699 13.232 52.8819 14.64H49.8579C49.8099 14.032 49.5219 13.512 48.9939 13.08C48.4659 12.648 47.7699 12.432 46.9059 12.432C46.1219 12.432 45.4819 12.632 44.9859 13.032C44.4899 13.432 44.2419 14.008 44.2419 14.76C44.2419 15.272 44.3939 15.696 44.6979 16.032C45.0179 16.352 45.4179 16.608 45.8979 16.8C46.3779 16.992 47.0339 17.2 47.8659 17.424C48.9699 17.728 49.8659 18.032 50.5539 18.336C51.2579 18.64 51.8499 19.112 52.3299 19.752C52.8259 20.376 53.0739 21.216 53.0739 22.272C53.0739 23.12 52.8419 23.92 52.3779 24.672C51.9299 25.424 51.2659 26.032 50.3859 26.496C49.5219 26.944 48.4979 27.168 47.3139 27.168Z" fill="black"/>
<path d="M56.3903 20.328C56.3903 19 56.6623 17.824 57.2063 16.8C57.7663 15.776 58.5183 14.984 59.4623 14.424C60.4223 13.848 61.4783 13.56 62.6303 13.56C63.6703 13.56 64.5743 13.768 65.3423 14.184C66.1263 14.584 66.7503 15.088 67.2143 15.696V13.776H69.9743V27H67.2143V25.032C66.7503 25.656 66.1183 26.176 65.3183 26.592C64.5183 27.008 63.6063 27.216 62.5823 27.216C61.4463 27.216 60.4063 26.928 59.4623 26.352C58.5183 25.76 57.7663 24.944 57.2063 23.904C56.6623 22.848 56.3903 21.656 56.3903 20.328ZM67.2143 20.376C67.2143 19.464 67.0223 18.672 66.6383 18C66.2703 17.328 65.7823 16.816 65.1743 16.464C64.5663 16.112 63.9103 15.936 63.2063 15.936C62.5023 15.936 61.8463 16.112 61.2383 16.464C60.6303 16.8 60.1343 17.304 59.7503 17.976C59.3823 18.632 59.1983 19.416 59.1983 20.328C59.1983 21.24 59.3823 22.04 59.7503 22.728C60.1343 23.416 60.6303 23.944 61.2383 24.312C61.8623 24.664 62.5183 24.84 63.2063 24.84C63.9103 24.84 64.5663 24.664 65.1743 24.312C65.7823 23.96 66.2703 23.448 66.6383 22.776C67.0223 22.088 67.2143 21.288 67.2143 20.376Z" fill="black"/>
<path d="M77.3039 9.24002V27H74.5679V9.24002H77.3039Z" fill="black"/>
<path d="M80.984 20.328C80.984 19 81.256 17.824 81.8 16.8C82.36 15.776 83.112 14.984 84.056 14.424C85.016 13.848 86.072 13.56 87.224 13.56C88.264 13.56 89.168 13.768 89.936 14.184C90.72 14.584 91.344 15.088 91.808 15.696V13.776H94.568V27H91.808V25.032C91.344 25.656 90.712 26.176 89.912 26.592C89.112 27.008 88.2 27.216 87.176 27.216C86.04 27.216 85 26.928 84.056 26.352C83.112 25.76 82.36 24.944 81.8 23.904C81.256 22.848 80.984 21.656 80.984 20.328ZM91.808 20.376C91.808 19.464 91.616 18.672 91.232 18C90.864 17.328 90.376 16.816 89.768 16.464C89.16 16.112 88.504 15.936 87.8 15.936C87.096 15.936 86.44 16.112 85.832 16.464C85.224 16.8 84.728 17.304 84.344 17.976C83.976 18.632 83.792 19.416 83.792 20.328C83.792 21.24 83.976 22.04 84.344 22.728C84.728 23.416 85.224 23.944 85.832 24.312C86.456 24.664 87.112 24.84 87.8 24.84C88.504 24.84 89.16 24.664 89.768 24.312C90.376 23.96 90.864 23.448 91.232 22.776C91.616 22.088 91.808 21.288 91.808 20.376Z" fill="black"/>
<path d="M102.354 16.008V23.328C102.354 23.824 102.466 24.184 102.69 24.408C102.93 24.616 103.33 24.72 103.89 24.72H105.57V27H103.41C102.178 27 101.234 26.712 100.578 26.136C99.9217 25.56 99.5937 24.624 99.5937 23.328V16.008H98.0337V13.776H99.5937V10.488H102.354V13.776H105.57V16.008H102.354Z" fill="black"/>
<path d="M111.827 15.696C112.227 15.024 112.755 14.504 113.411 14.136C114.083 13.752 114.875 13.56 115.787 13.56V16.392H115.091C114.019 16.392 113.203 16.664 112.643 17.208C112.099 17.752 111.827 18.696 111.827 20.04V27H109.091V13.776H111.827V15.696Z" fill="black"/>
<path d="M120.694 12.024C120.198 12.024 119.782 11.856 119.446 11.52C119.11 11.184 118.942 10.768 118.942 10.272C118.942 9.77602 119.11 9.36002 119.446 9.02402C119.782 8.68802 120.198 8.52002 120.694 8.52002C121.174 8.52002 121.582 8.68802 121.918 9.02402C122.254 9.36002 122.422 9.77602 122.422 10.272C122.422 10.768 122.254 11.184 121.918 11.52C121.582 11.856 121.174 12.024 120.694 12.024ZM122.038 13.776V27H119.302V13.776H122.038Z" fill="black"/>
<path d="M127.734 27.168C127.238 27.168 126.822 27 126.486 26.664C126.15 26.328 125.982 25.912 125.982 25.416C125.982 24.92 126.15 24.504 126.486 24.168C126.822 23.832 127.238 23.664 127.734 23.664C128.214 23.664 128.622 23.832 128.958 24.168C129.294 24.504 129.462 24.92 129.462 25.416C129.462 25.912 129.294 26.328 128.958 26.664C128.622 27 128.214 27.168 127.734 27.168Z" fill="black"/>
</svg>
